<?xml version="1.0" encoding="UTF-8" standalone="no"?>
<!-- Created with Inkscape (http://www.inkscape.org/) -->

<svg
   xmlns:dc="http://purl.org/dc/elements/1.1/"
   xmlns:cc="http://creativecommons.org/ns#"
   xmlns:rdf="http://www.w3.org/1999/02/22-rdf-syntax-ns#"
   xmlns:svg="http://www.w3.org/2000/svg"
   xmlns="http://www.w3.org/2000/svg"
   xmlns:sodipodi="http://sodipodi.sourceforge.net/DTD/sodipodi-0.dtd"
   xmlns:inkscape="http://www.inkscape.org/namespaces/inkscape"
   version="1.0"
   width="299.99649"
   height="225.92412"
   viewBox="0 0 85.704 64.542"
   id="Layer_1"
   xml:space="preserve"
   sodipodi:docname="Speech_bubble.svg"
   inkscape:version="0.92.4 (5da689c313, 2019-01-14)"><metadata
   id="metadata8"><rdf:RDF><cc:Work
       rdf:about=""><dc:format>image/svg+xml</dc:format><dc:type
         rdf:resource="http://purl.org/dc/dcmitype/StillImage" /></cc:Work></rdf:RDF></metadata><sodipodi:namedview
   pagecolor="#ffffff"
   bordercolor="#666666"
   borderopacity="1"
   objecttolerance="10"
   gridtolerance="10"
   guidetolerance="10"
   inkscape:pageopacity="0"
   inkscape:pageshadow="2"
   inkscape:window-width="1920"
   inkscape:window-height="1017"
   id="namedview6"
   showgrid="false"
   inkscape:zoom="1.0445985"
   inkscape:cx="149.99825"
   inkscape:cy="112.96206"
   inkscape:window-x="-8"
   inkscape:window-y="32"
   inkscape:window-maximized="1"
   inkscape:current-layer="Layer_1" /><defs
   id="defs8" />
<g
   transform="matrix(0.9486962,0,0,-0.9486962,2.4834364,63.066932)"
   id="g3">
	<path
   d="m 45.673,0 c 22.108,0 40.03,12.475 40.03,27.862 0,15.387 -17.922,27.862 -40.03,27.862 -6.931,0 -13.449,-1.227 -19.134,-3.384 C 15.319,56.564 0,64.542 0,64.542 c 0,0 9.989,-5.655 14.107,-12.521 1.052,-1.755 1.668,-3.595 2.021,-5.362 C 9.618,41.704 5.643,35.106 5.643,27.862 5.643,12.475 23.565,0 45.673,0 m 0,2.22 c -20.849,0 -37.811,11.503 -37.811,25.643 0,6.266 3.413,12.314 9.61,17.03 l 1.104,0.841 -0.271,1.36 c -0.445,2.23 -1.217,4.272 -2.294,6.069 -0.341,0.567 -0.717,1.127 -1.12,1.674 3.625,-1.646 7.421,-3.276 10.866,-4.573 l 0.785,-0.296 0.785,0.298 c 5.584,2.119 11.928,3.239 18.346,3.239 20.849,0 37.811,-11.503 37.811,-25.643 C 83.484,13.722 66.522,2.22 45.673,2.22 Z"
   id="path5"
   inkscape:connector-curvature="0" />
</g>
</svg>