<?xml version="1.0" encoding="UTF-8" standalone="no"?>
<!-- Generator: Adobe Illustrator 19.0.0, SVG Export Plug-In . SVG Version: 6.00 Build 0)  -->

<svg
   xmlns:dc="http://purl.org/dc/elements/1.1/"
   xmlns:cc="http://creativecommons.org/ns#"
   xmlns:rdf="http://www.w3.org/1999/02/22-rdf-syntax-ns#"
   xmlns:svg="http://www.w3.org/2000/svg"
   xmlns="http://www.w3.org/2000/svg"
   xmlns:sodipodi="http://sodipodi.sourceforge.net/DTD/sodipodi-0.dtd"
   xmlns:inkscape="http://www.inkscape.org/namespaces/inkscape"
   version="1.1"
   id="Layer_1"
   x="0px"
   y="0px"
   viewBox="0 0 1382.4183 1511.811"
   xml:space="preserve"
   sodipodi:docname="palette.svg"
   width="1382.4183"
   height="1511.811"
   inkscape:version="0.92.2 (5c3e80d, 2017-08-06)"><metadata
     id="metadata83"><rdf:RDF><cc:Work
         rdf:about=""><dc:format>image/svg+xml</dc:format><dc:type
           rdf:resource="http://purl.org/dc/dcmitype/StillImage" /><dc:title></dc:title></cc:Work></rdf:RDF></metadata><defs
     id="defs81" /><sodipodi:namedview
     pagecolor="#ffffff"
     bordercolor="#666666"
     borderopacity="1"
     objecttolerance="10"
     gridtolerance="10"
     guidetolerance="10"
     inkscape:pageopacity="0"
     inkscape:pageshadow="2"
     inkscape:window-width="1920"
     inkscape:window-height="1017"
     id="namedview79"
     showgrid="false"
     fit-margin-top="0"
     fit-margin-left="0"
     fit-margin-right="0"
     fit-margin-bottom="0"
     inkscape:zoom="0.47621161"
     inkscape:cx="247.58007"
     inkscape:cy="132.29409"
     inkscape:window-x="-8"
     inkscape:window-y="-8"
     inkscape:window-maximized="1"
     inkscape:current-layer="Layer_1" /><g
     id="g46"
     transform="matrix(3.0505999,0,0,3.0505999,-64.697123,8.4235896e-4)"><g
       id="g4"><path
         style="fill:#e6be94"
         d="m 439.208,215.578 c -46.975,-53.529 -96,-65.973 -96,-125 0,-64.333 -54.333,-113.667 -149.429,-79.321 C 91.816,48.083 21.208,136.911 21.208,247.578 c 0,136.966 111.033,248 248,248 22.527,0 44.354,-3.004 65.099,-8.632 l -0.006,-0.026 C 439.208,456.578 525.208,313.578 439.208,215.578 Z M 333.709,189.69 c -14.501,18.555 -54.668,7.707 -70.17,-18.547 -13.664,-23.14 -8.664,-56.232 14.988,-70.822 13.71,-8.457 31.791,-0.135 35.231,15.602 2.8,12.806 8.543,28.671 20.239,43.187 7.128,8.85 6.71,21.626 -0.288,30.58 z"
         id="path2"
         inkscape:connector-curvature="0" /></g><g
       id="g8"><circle
         style="fill:#ff4f19"
         cx="165.09801"
         cy="135.688"
         r="47.889999"
         id="circle6" /></g><g
       id="g12"><circle
         style="fill:#ff8c62"
         cx="176.94"
         cy="123.715"
         r="16.761999"
         id="circle10" /></g><g
       id="g16"><circle
         style="fill:#ffcd00"
         cx="117.098"
         cy="255.688"
         r="47.889999"
         id="circle14" /></g><g
       id="g20"><circle
         style="fill:#ffe671"
         cx="128.94"
         cy="243.715"
         r="16.761999"
         id="circle18" /></g><g
       id="g24"><circle
         style="fill:#00c37a"
         cx="172.879"
         cy="367.46899"
         r="47.889999"
         id="circle22" /></g><g
       id="g28"><circle
         style="fill:#60dc4d"
         cx="184.72"
         cy="355.496"
         r="16.761999"
         id="circle26" /></g><g
       id="g32"><circle
         style="fill:#4cd7ff"
         cx="293.09799"
         cy="407.68799"
         r="47.889999"
         id="circle30" /></g><g
       id="g36"><circle
         style="fill:#aeefff"
         cx="304.939"
         cy="395.715"
         r="16.761999"
         id="circle34" /></g><g
       id="g40"><circle
         style="fill:#009bca"
         cx="381.09799"
         cy="319.46899"
         r="47.889999"
         id="circle38" /></g><g
       id="g44"><circle
         style="fill:#4cd7ff"
         cx="392.939"
         cy="307.496"
         r="16.761999"
         id="circle42" /></g></g><g
     id="g48"
     transform="matrix(3.0505999,0,0,3.0505999,-64.697123,8.4235896e-4)" /><g
     id="g50"
     transform="matrix(3.0505999,0,0,3.0505999,-64.697123,8.4235896e-4)" /><g
     id="g52"
     transform="matrix(3.0505999,0,0,3.0505999,-64.697123,8.4235896e-4)" /><g
     id="g54"
     transform="matrix(3.0505999,0,0,3.0505999,-64.697123,8.4235896e-4)" /><g
     id="g56"
     transform="matrix(3.0505999,0,0,3.0505999,-64.697123,8.4235896e-4)" /><g
     id="g58"
     transform="matrix(3.0505999,0,0,3.0505999,-64.697123,8.4235896e-4)" /><g
     id="g60"
     transform="matrix(3.0505999,0,0,3.0505999,-64.697123,8.4235896e-4)" /><g
     id="g62"
     transform="matrix(3.0505999,0,0,3.0505999,-64.697123,8.4235896e-4)" /><g
     id="g64"
     transform="matrix(3.0505999,0,0,3.0505999,-64.697123,8.4235896e-4)" /><g
     id="g66"
     transform="matrix(3.0505999,0,0,3.0505999,-64.697123,8.4235896e-4)" /><g
     id="g68"
     transform="matrix(3.0505999,0,0,3.0505999,-64.697123,8.4235896e-4)" /><g
     id="g70"
     transform="matrix(3.0505999,0,0,3.0505999,-64.697123,8.4235896e-4)" /><g
     id="g72"
     transform="matrix(3.0505999,0,0,3.0505999,-64.697123,8.4235896e-4)" /><g
     id="g74"
     transform="matrix(3.0505999,0,0,3.0505999,-64.697123,8.4235896e-4)" /><g
     id="g76"
     transform="matrix(3.0505999,0,0,3.0505999,-64.697123,8.4235896e-4)" /></svg>